Coordinates
version=1
nRows=11
nColumns=46
inDegrees=yes

Units are S.I. units (second, meters, Newtons, ...)
Angles are in degrees.

endheader
time	pelvis_tilt	pelvis_list	pelvis_rotation	pelvis_tx	pelvis_ty	pelvis_tz	bb_angle	bb_tx	bb_ty	bb_tz	hip_flexion_r	hip_adduction_r	hip_rotation_r	knee_angle_r	knee_angle_r_beta	ankle_angle_r	subtalar_angle_r	mtp_angle_r	crank_angle_r	hip_flexion_l	hip_adduction_l	hip_rotation_l	knee_angle_l	knee_angle_l_beta	ankle_angle_l	subtalar_angle_l	mtp_angle_l	crank_angle_l	lumbar_extension	lumbar_bending	lumbar_rotation	arm_flex_r	arm_add_r	arm_rot_r	elbow_flex_r	pro_sup_r	wrist_flex_r	wrist_dev_r	arm_flex_l	arm_add_l	arm_rot_l	elbow_flex_l	pro_sup_l	wrist_flex_l	wrist_dev_l
      2.50500000	    -19.35308545	      6.40775526	      2.00064376	      0.40218557	      1.19519354	     -0.22679048	      0.00000000	      0.50000000	      0.00000000	      0.25000000	     31.48982202	    -13.15953101	     -9.01968758	     32.65939974	      0.57001406	     -7.05660887	      3.43615004	      0.00000000	      0.00000000	     66.17884438	    -10.31679168	     -3.96155773	    107.41780324	      1.87479434	     10.35996981	     12.15642133	      0.00000000	      0.00000000	    -46.40336731	     -2.10510210	      1.25290904	     48.97275201	    -28.72470780	     36.44020309	     56.44201230	     46.18888196	      0.00000000	      0.00000000	     62.55051020	     -4.87345391	     52.13088111	     24.30898764	     47.26017343	      0.00000000	      0.00000000
      2.51000000	    -19.60359786	      6.47091364	      2.23309411	      0.40248622	      1.19730209	     -0.22701773	      0.00000000	      0.50000000	      0.00000000	      0.25000000	     30.91902113	    -13.27020303	     -9.45243265	     31.51480048	      0.55003703	     -8.11659080	      3.68411700	      0.00000000	      0.00000000	     66.53132314	     -9.88073814	     -3.88369908	    107.17361300	      1.87053242	     10.92933659	     12.17004580	      0.00000000	      0.00000000	    -46.29702676	     -2.29268094	      0.42646434	     50.04969000	    -26.99359399	     36.73707611	     53.39340290	     46.02170779	      0.00000000	      0.00000000	     62.86845536	     -6.09732878	     54.97615211	     24.76922742	     47.66355893	      0.00000000	      0.00000000
      2.51500000	    -19.94087124	      6.53340330	      2.45272961	      0.40280543	      1.19938162	     -0.22727441	      0.00000000	      0.50000000	      0.00000000	      0.25000000	     30.45059307	    -13.37158161	     -9.86974997	     30.35899923	      0.52986449	     -9.28218598	      3.95227618	      0.00000000	      0.00000000	     66.95594642	     -9.45422065	     -3.83980523	    106.91663611	      1.86604733	     11.51912522	     12.10357909	      0.00000000	      0.00000000	    -46.24197145	     -2.55191089	      0.27309046	     49.99351302	    -27.01148034	     36.69419609	     53.10407459	     45.98272744	      0.00000000	      0.00000000	     63.04913750	     -5.93951732	     55.05002136	     24.87156777	     47.67807841	      0.00000000	      0.00000000
      2.52000000	    -20.10161194	      6.47006462	      2.72141237	      0.40330004	      1.20195692	     -0.22756107	      0.00000000	      0.50000000	      0.00000000	      0.25000000	     29.68487793	    -13.34315993	    -10.46357771	     29.05093944	      0.50703454	    -10.60391268	      4.01434814	      0.00000000	      0.00000000	     67.19910673	     -9.03432555	     -3.64982979	    106.62605258	      1.86097569	     12.05053231	     12.03862472	      0.00000000	      0.00000000	    -46.40230127	     -2.66167054	      0.15777103	     50.10849848	    -26.83331700	     36.53502592	     52.46260114	     45.87568776	      0.00000000	      0.00000000	     63.26939854	     -5.75637727	     55.20900753	     24.89873327	     47.69056897	      0.00000000	      0.00000000
      2.52500000	    -20.16440955	      6.41330308	      3.04186071	      0.40384831	      1.20486087	     -0.22780456	      0.00000000	      0.50000000	      0.00000000	      0.25000000	     28.84279162	    -13.35521457	    -11.15194317	     27.80612215	      0.48530838	    -11.95114538	      4.12864709	      0.00000000	      0.00000000	     67.28728180	     -8.53271659	     -3.41942313	    106.24887647	      1.85439272	     12.61818881	     11.98268228	      0.00000000	      0.00000000	    -46.65407053	     -2.75335953	     -0.10102200	     50.40497028	    -26.35039849	     36.24210973	     51.34739546	     45.68264987	      0.00000000	      0.00000000	     63.58270668	     -5.66798414	     55.53394759	     24.89896426	     47.72105145	      0.00000000	      0.00000000
      2.53000000	    -20.46980952	      6.45116073	      3.24063841	      0.40415755	      1.20737354	     -0.22818078	      0.00000000	      0.50000000	      0.00000000	      0.25000000	     28.38686521	    -13.42091057	    -11.52716958	     26.64559147	      0.46505330	    -13.39998268	      4.48251735	      0.00000000	      0.00000000	     67.62267278	     -8.05310466	     -3.36270123	    105.92045170	      1.84866063	     13.28895233	     11.84763312	      0.00000000	      0.00000000	    -46.57626833	     -2.90493564	     -0.72184669	     51.39140226	    -24.51766982	     35.87555537	     48.31275101	     45.28183927	      0.00000000	      0.00000000	     63.92236205	     -6.26315736	     56.95998748	     24.79903948	     47.85947675	      0.00000000	      0.00000000
      2.53500000	    -20.71592424	      6.39603151	      3.47104392	      0.40466305	      1.21014736	     -0.22841028	      0.00000000	      0.50000000	      0.00000000	      0.25000000	     27.80608538	    -13.37881020	    -12.09004943	     25.39832531	      0.44328440	    -15.01398902	      4.55338776	      0.00000000	      0.00000000	     67.86152452	     -7.64274455	     -3.24072868	    105.49373049	      1.84121294	     13.83313014	     11.68824426	      0.00000000	      0.00000000	    -46.69765683	     -3.03875472	     -0.85807703	     51.42182098	    -24.47004538	     35.85677939	     47.92061683	     45.23978484	      0.00000000	      0.00000000	     64.13779106	     -6.10207347	     57.14719636	     24.90135127	     47.88736030	      0.00000000	      0.00000000
      2.54000000	    -20.90240460	      6.39332129	      3.68546031	      0.40505847	      1.21303531	     -0.22871313	      0.00000000	      0.50000000	      0.00000000	      0.25000000	     27.25824694	    -13.41624411	    -12.61641358	     24.26928541	      0.42357894	    -16.63019045	      4.79314062	      0.00000000	      0.00000000	     68.01162514	     -7.11797894	     -3.10079417	    105.06176356	      1.83367369	     14.45690621	     11.51284426	      0.00000000	      0.00000000	    -46.79493452	     -3.21902555	     -1.25784249	     52.08795211	    -23.37939569	     35.61704776	     45.95895877	     45.02392133	      0.00000000	      0.00000000	     64.61351367	     -6.33948591	     58.35697141	     24.69302291	     47.97711048	      0.00000000	      0.00000000
      2.54500000	    -21.31977254	      6.41218233	      3.81978592	      0.40536820	      1.21557848	     -0.22896486	      0.00000000	      0.50000000	      0.00000000	      0.25000000	     27.04071360	    -13.44390938	    -12.95601348	     23.21260580	      0.40513640	    -18.30149448	      5.15024648	      0.00000000	      0.00000000	     68.37768859	     -6.68911781	     -3.07798182	    104.59335453	      1.82549841	     15.10498619	     11.27277155	      0.00000000	      0.00000000	    -46.74304637	     -3.50431177	     -1.37118494	     52.09021166	    -23.34468996	     35.60866734	     45.79522569	     45.00756924	      0.00000000	      0.00000000	     64.86216241	     -6.21246748	     58.44179840	     24.81400255	     47.99832162	      0.00000000	      0.00000000
      2.55000000	    -21.51679336	      6.36156420	      4.00552796	      0.40589592	      1.21858597	     -0.22920014	      0.00000000	      0.50000000	      0.00000000	      0.25000000	     26.50750606	    -13.40681336	    -13.53899780	     22.01086004	      0.38416198	    -20.27180219	      5.23170738	      0.00000000	      0.00000000	     68.49468243	     -6.26337687	     -2.99140251	    104.07984256	      1.81653594	     15.59999276	     10.87628082	      0.00000000	      0.00000000	    -46.91647725	     -3.66759278	     -1.45038120	     52.15890534	    -23.20242146	     35.51252816	     45.41000431	     44.94823871	      0.00000000	      0.00000000	     65.11007344	     -6.09787962	     58.63508458	     24.87536896	     48.02727757	      0.00000000	      0.00000000
      2.55500000	    -21.57598774	      6.27305250	      4.21093804	      0.40638329	      1.22183668	     -0.22936898	      0.00000000	      0.50000000	      0.00000000	      0.25000000	     25.80846708	    -13.29960524	    -14.07338486	     20.77638742	      0.36261637	    -22.19366275	      5.27160549	      0.00000000	      0.00000000	     68.45447771	     -5.82348837	     -2.82396577	    103.54845192	      1.80726142	     16.21478371	     10.65884234	      0.00000000	      0.00000000	    -47.24746463	     -3.77063771	     -1.63334788	     52.52416916	    -22.65160435	     35.20012920	     44.54357397	     44.79999487	      0.00000000	      0.00000000	     65.61936406	     -6.06424223	     59.16786051	     24.78267147	     48.07870480	      0.00000000	      0.00000000
